<?xml version="1.0" encoding="UTF-8" standalone="no"?>
<svg width="174px" height="200px" viewBox="0 0 174 200" version="1.1" xmlns="http://www.w3.org/2000/svg" xmlns:xlink="http://www.w3.org/1999/xlink" xmlns:sketch="http://www.bohemiancoding.com/sketch/ns">
    <!-- Generator: Sketch 3.4.2 (15857) - http://www.bohemiancoding.com/sketch -->
    <title>Untitled</title>
    <desc>Created with Sketch.</desc>
    <defs>
        <polygon id="path-1" points="86.6025404 0 173.205081 50 173.205081 150 86.6025404 200 5.68434189e-14 150 0 50 "></polygon>
    </defs>
    <g id="Page-1" stroke="none" stroke-width="1" fill="none" fill-rule="evenodd" sketch:type="MSPage">
        <g id="Polygon-1-+-Polygon-1" sketch:type="MSLayerGroup" transform="translate(87.000000, 100.000000) scale(1, -1) translate(-87.000000, -100.000000) ">
            <mask id="mask-2" sketch:name="Mask" fill="white">
                <use xlink:href="#path-1"></use>
            </mask>
            <use id="Mask" sketch:type="MSShapeGroup" xlink:href="#path-1"></use>
            <g mask="url(#mask-2)" stroke="#7ED321" id="Polygon-1" stroke-width="10" sketch:type="MSShapeGroup">
                <g transform="translate(-61.000000, -98.000000)">
                    <polygon transform="translate(125.000000, 247.903811) rotate(-330.000000) translate(-125.000000, -247.903811) " points="125 147.903811 211.60254 197.903811 211.60254 297.903811 125 347.903811 38.3974596 297.903811 38.3974596 197.903811 "></polygon>
                    <polygon transform="translate(204.000000, 129.903811) rotate(-330.000000) translate(-204.000000, -129.903811) " points="204 29.9038106 290.60254 79.9038106 290.60254 179.903811 204 229.903811 117.39746 179.903811 117.39746 79.9038106 "></polygon>
                    <polygon points="147.60254 98 234.205081 148 234.205081 248 147.60254 298 61 248 61 148 "></polygon>
                </g>
            </g>
        </g>
    </g>
</svg>